<?xml version="1.0" encoding="UTF-8"?><svg xmlns="http://www.w3.org/2000/svg" xmlns:xlink="http://www.w3.org/1999/xlink" data-name="Camada 1" height="284.6" preserveAspectRatio="xMidYMid meet" version="1.0" viewBox="82.6 121.9 327.5 284.6" width="327.5" zoomAndPan="magnify"><g id="change1_1"><path d="M354,302.82s35-18.76,34.27-30.42-49.86-2.86-49.86-2.86" fill="#575756" stroke="#000" stroke-linecap="round" stroke-linejoin="round" stroke-width="5.62"/></g><g id="change1_2"><path d="M135.79,302.82s-35-18.76-34.27-30.42,49.86-2.86,49.86-2.86" fill="#575756" stroke="#000" stroke-linecap="round" stroke-linejoin="round" stroke-width="5.62"/></g><g id="change2_1"><path d="M236.88,147.46a28.84,28.84,0,0,1,1.05,3.95l-45.76,16.74A24.48,24.48,0,0,1,201,134.76a22.61,22.61,0,0,1,4.2-2,22.88,22.88,0,0,1,5.33-1.29A24.73,24.73,0,0,1,236.88,147.46Z" fill="#fffbbd" stroke="#000" stroke-linecap="round" stroke-linejoin="round" stroke-width="5.62"/></g><g id="change3_1"><path d="M223.57,155.07l-17.83,6.52a50.18,50.18,0,0,1-4.33-13.39,36.2,36.2,0,0,1,0-12.11,26.87,26.87,0,0,1,9.52-3.32c.67.77,1.31,1.55,1.92,2.38A74.15,74.15,0,0,1,223.57,155.07Z" fill="#f9c975" stroke="#000" stroke-linecap="round" stroke-linejoin="round" stroke-width="2.66"/></g><g id="change4_1"><circle cx="203.66" cy="129.19" r="2.47"/></g><g id="change4_2"><ellipse cx="196.2" cy="131.84" rx="8.85" ry="1.08" transform="rotate(-20.09 196.155 131.836)"/></g><g id="change4_3"><ellipse cx="211.28" cy="125.96" rx="8.85" ry="1.08" transform="rotate(-20.09 211.23 125.948)"/></g><g id="change1_3"><path d="M353.11,278.62a63.3,63.3,0,0,1-4.89-25.51c.67-33.37-11.31-57.8-28.45-74.93A108.25,108.25,0,0,0,277.7,152c-25.67-8.48-52.86-3.58-61.55-.54a121.35,121.35,0,0,0-30.93,16c-23.57,17-41.93,44.58-41.09,85.68a63.47,63.47,0,0,1-4.89,25.51c-21,50.86-5.88,115.32,59,121.22,15.7,1.43,31.95,2.38,47.93,2.23,16,.15,32.23-.8,47.93-2.23C359,393.94,374.09,329.48,353.11,278.62Z" fill="#575756" stroke="#000" stroke-linecap="round" stroke-linejoin="round" stroke-width="5.62"/></g><g id="change5_1"><path d="M329.48,287.71a73.22,73.22,0,0,1-4.73-27.21c.42-22.65-5.91-41.48-18.83-56-16.22-18.2-40.55-26.35-57.46-26.35-.79,0-1.54,0-2.29.06s-1.5-.06-2.28-.06c-16.92,0-41.25,8.15-57.47,26.35-12.91,14.49-19.25,33.32-18.83,56a73.41,73.41,0,0,1-4.72,27.21c-8.76,23.34-8.24,48.66,1.35,66.09,7.45,13.53,17.94,17.76,36.21,22.89,9.65,2.71,25.88,3.78,37.55,4.13,1.33,0,2.7.07,4.08.09l2.23,0h3.76l2.23,0c1.38,0,2.75-.05,4.08-.09,11.67-.35,27.91-1.42,37.55-4.13,18.27-5.13,28.76-9.36,36.21-22.89C337.72,336.37,338.24,311.05,329.48,287.71Z" fill="#fff" stroke="#000" stroke-linecap="round" stroke-linejoin="round" stroke-width="2.81"/></g><path d="M200.15,259.52a10.2,10.2,0,0,1,20.39,0" fill="none" stroke="#000" stroke-linecap="round" stroke-linejoin="round" stroke-width="4.44"/><path d="M269.75,259.52a10.2,10.2,0,0,1,20.39,0" fill="none" stroke="#000" stroke-linecap="round" stroke-linejoin="round" stroke-width="4.44"/><g id="change6_1"><path d="M251.43,253.71a15.09,15.09,0,0,0-10.67.16,4.28,4.28,0,0,0-2.47,5c.75,3,2.94,6.62,7,7.37,5,0,8-4.14,8.69-8.06A4,4,0,0,0,251.43,253.71Z" fill="#f9b233" stroke="#000" stroke-miterlimit="10" stroke-width="2.11"/></g><g id="change7_1"><ellipse cx="289.69" cy="274.51" fill="#ff9791" rx="8.43" ry="6" transform="rotate(-24.78 289.68 274.5)"/></g><g id="change7_2"><ellipse cx="201.44" cy="273.68" fill="#ff9791" rx="6" ry="8.43" transform="rotate(-53.77 201.461 273.69)"/></g><g id="change8_1"><path d="M239.21,300.74a5.07,5.07,0,0,1-4.06.22c-1.44-.74-2-2.54-2.07-4.15a15.71,15.71,0,0,1,.46-5.06,5,5,0,0,1,2.39-3.51,3.92,3.92,0,0,1,3,.05,11.63,11.63,0,0,1,2.62,1.56,15.66,15.66,0,0,1,3,2.53C248.23,296.76,243,299.29,239.21,300.74Z" fill="#9fcfe3" stroke="#000" stroke-miterlimit="10" stroke-width="2.11"/></g><g id="change8_2"><path d="M253,300.74a5,5,0,0,0,4,.22c1.44-.74,2-2.54,2.07-4.15a15.44,15.44,0,0,0-.46-5.06,5,5,0,0,0-2.39-3.51,3.92,3.92,0,0,0-3,.05,11.63,11.63,0,0,0-2.62,1.56,16,16,0,0,0-3,2.53C243.94,296.76,249.17,299.29,253,300.74Z" fill="#9fcfe3" stroke="#000" stroke-miterlimit="10" stroke-width="2.11"/></g><g id="change8_3"><circle cx="246.39" cy="294.64" fill="#9fcfe3" r="2.92" stroke="#000" stroke-miterlimit="10" stroke-width="2.11"/></g><g id="change6_2"><path d="M299.49,401.62a4.3,4.3,0,0,0,1.75-1.57,1.77,1.77,0,0,0-.28-2.18c-.95-.76-2.6,0-3.44-.9s-.23-2.22-.93-3c-1.25-1.46-4.16.95-5.4-.51a9.32,9.32,0,0,1-.67-1.47c-.69-1.18-2.42-1.1-3.72-.68-2.72.88-5.36,3-5.54,5.84a6.25,6.25,0,0,0,3.16,5.42C288.9,405.3,295.17,404.12,299.49,401.62Z" fill="#f9b233" stroke="#000" stroke-miterlimit="10" stroke-width="2.11"/></g><g id="change6_3"><path d="M194.41,401.62a4.39,4.39,0,0,1-1.76-1.57,1.76,1.76,0,0,1,.29-2.18c.94-.76,2.59,0,3.43-.9s.23-2.22.93-3c1.25-1.46,4.17.95,5.4-.51a9.32,9.32,0,0,0,.67-1.47c.69-1.18,2.42-1.1,3.73-.68,2.71.88,5.36,3,5.53,5.84a6.23,6.23,0,0,1-3.16,5.42C205,405.3,198.72,404.12,194.41,401.62Z" fill="#f9b233" stroke="#000" stroke-miterlimit="10" stroke-width="2.11"/></g><g id="change9_1"><path d="M386.66,292.85c3-.24,6.21-3.63,6.07-6.61a8.46,8.46,0,0,0,6.87,1.52,10.17,10.17,0,0,0,5.94-3.9c1.28-1.74,2-4.11,1.12-6.06s-3.53-2.94-5.78-2.68a17.37,17.37,0,0,0-6.66,1.88l3.54-9.28c4.89-11,4.95-18-2.23-25.18a18.57,18.57,0,0,0-26.24,0c-7.24,7.24-9.32,17.76,2.29,28.52,2.37,2.2,13.76,10.25,13.76,10.25a5.81,5.81,0,0,0,1.32,11.54Z" fill="#fffab3" stroke="#000" stroke-linecap="round" stroke-linejoin="round" stroke-width="4.5"/></g><g id="change1_4"><path d="M386.88 253.97L378.28 251.44" fill="#575756" stroke="#000" stroke-linecap="round" stroke-linejoin="round" stroke-width="4.5"/></g><g id="change1_5"><path d="M383.84 248.4L381.31 257.01" fill="#575756" stroke="#000" stroke-linecap="round" stroke-linejoin="round" stroke-width="4.5"/></g><g id="change9_2"><path d="M87.78,289.59c2.22,2,6.91,2,9-.13a8.44,8.44,0,0,0,3.63,6,10.09,10.09,0,0,0,6.91,1.63c2.14-.26,4.38-1.34,5.16-3.35s-.28-4.59-2-6a17.3,17.3,0,0,0-6-3.54l9.17-3.81c11.33-4,16.47-8.8,16.74-18.95a18.56,18.56,0,0,0-18.05-19c-10.24-.27-19.3,5.45-19.12,21.28,0,3.23,2,17,2,17a5.81,5.81,0,0,0-7.48,8.89Z" fill="#fffab3" stroke="#000" stroke-linecap="round" stroke-linejoin="round" stroke-width="4.5"/></g><g id="change1_6"><path d="M116.16 263.01L112.07 255.03" fill="#575756" stroke="#000" stroke-linecap="round" stroke-linejoin="round" stroke-width="4.5"/></g><g id="change1_7"><path d="M118.11 256.98L110.12 261.06" fill="#575756" stroke="#000" stroke-linecap="round" stroke-linejoin="round" stroke-width="4.5"/></g></svg>