<?xml version="1.0" encoding="UTF-8"?><svg xmlns="http://www.w3.org/2000/svg" xmlns:xlink="http://www.w3.org/1999/xlink" data-name="Camada 1" height="296.6" preserveAspectRatio="xMidYMid meet" version="1.0" viewBox="102.5 105.5 279.0 296.6" width="279.0" zoomAndPan="magnify"><g id="change1_1"><path d="M296.13,390a4.39,4.39,0,0,1,1.76,1.57,1.79,1.79,0,0,1-.29,2.18c-1,.76-2.59,0-3.43.9s-.23,2.22-.94,3c-1.25,1.46-4.16-.95-5.4.51a12.23,12.23,0,0,0-.67,1.47c-.69,1.18-2.42,1.11-3.72.68-2.71-.88-5.36-3-5.54-5.84a6.25,6.25,0,0,1,3.16-5.42C285.54,386.28,291.81,387.46,296.13,390Z" fill="#f9b233" stroke="#000" stroke-miterlimit="10" stroke-width="2.11"/></g><g id="change1_2"><path d="M191.05,390a4.39,4.39,0,0,0-1.76,1.57,1.79,1.79,0,0,0,.29,2.18c.95.76,2.59,0,3.43.9s.23,2.22.94,3c1.25,1.46,4.16-.95,5.4.51.35.42.39,1,.67,1.47.69,1.18,2.42,1.11,3.72.68,2.71-.88,5.36-3,5.54-5.84a6.25,6.25,0,0,0-3.16-5.42C201.64,386.28,195.37,387.46,191.05,390Z" fill="#f9b233" stroke="#000" stroke-miterlimit="10" stroke-width="2.11"/></g><g id="change2_1"><path d="M352.62,284.27s28.87-27.28,25.1-38.34-48.86,10.31-48.86,10.31" fill="#575756" stroke="#000" stroke-linecap="round" stroke-linejoin="round" stroke-width="5.62"/></g><g id="change2_2"><path d="M156.4,289.92s-35.84,17.15-44.8,9.66,27.16-41.9,27.16-41.9" fill="#575756" stroke="#000" stroke-linecap="round" stroke-linejoin="round" stroke-width="5.62"/></g><g id="change3_1"><path d="M267,140.5a27.68,27.68,0,0,1-.2,4.09l-48.7,1.9a24.56,24.56,0,0,1,18.6-29.09,22.28,22.28,0,0,1,4.61-.63,23,23,0,0,1,5.47.41A24.7,24.7,0,0,1,267,140.5Z" fill="#fffbbd" stroke="#000" stroke-linecap="round" stroke-linejoin="round" stroke-width="5.62"/></g><g id="change4_1"><path d="M252,143.66l-19,.75a50.31,50.31,0,0,1,0-14.08,36.35,36.35,0,0,1,3.73-11.52,25.6,25.6,0,0,1,4.62-.58,25.31,25.31,0,0,1,5.47.34c.4.94.77,1.88,1.09,2.86A74,74,0,0,1,252,143.66Z" fill="#f9c975" stroke="#000" stroke-linecap="round" stroke-linejoin="round" stroke-width="2.66"/></g><g id="change5_1"><circle cx="240.98" cy="112.92" r="2.47"/></g><g id="change5_2"><ellipse cx="233.07" cy="113.16" rx="8.85" ry="1.08" transform="rotate(-2.24 232.66 113.029)"/></g><g id="change5_3"><ellipse cx="249.22" cy="112.19" rx="8.85" ry="1.08" transform="rotate(-2.24 248.798 112.065)"/></g><g id="change2_3"><path d="M349.75,268.45a63.39,63.39,0,0,1-4.89-25.5c.68-33.38-11.3-57.81-28.45-74.94a108.4,108.4,0,0,0-42.06-26.21c-25.68-8.48-52.87-3.58-61.56-.54a121.07,121.07,0,0,0-30.93,16c-23.56,17-41.92,44.58-41.09,85.68a63.39,63.39,0,0,1-4.89,25.5c-21,50.86-5.88,115.32,59,121.22,15.7,1.43,32,2.38,47.93,2.24,16,.14,32.24-.81,47.94-2.24C355.63,383.77,370.73,319.31,349.75,268.45Z" fill="#575756" stroke="#000" stroke-linecap="round" stroke-linejoin="round" stroke-width="5.62"/></g><g id="change6_1"><path d="M326.12,277.54a73.61,73.61,0,0,1-4.73-27.2c.42-22.66-5.91-41.49-18.82-56C286.34,176.16,262,168,245.1,168c-.78,0-1.54,0-2.29.07s-1.5-.07-2.28-.07c-16.92,0-41.25,8.15-57.47,26.35-12.91,14.49-19.24,33.32-18.83,56a73.39,73.39,0,0,1-4.72,27.2c-8.76,23.34-8.24,48.67,1.36,66.1,7.45,13.52,17.93,17.75,36.21,22.88,9.64,2.71,25.88,3.78,37.54,4.13,1.34.05,2.7.08,4.08.1l2.24,0,1.14,0h1.47l1.14,0,2.23,0c1.38,0,2.75-.05,4.08-.1,11.67-.35,27.91-1.42,37.55-4.13,18.27-5.13,28.76-9.36,36.21-22.88C334.36,326.21,334.88,300.88,326.12,277.54Z" fill="#fff" stroke="#000" stroke-linecap="round" stroke-linejoin="round" stroke-width="2.81"/></g><g id="change1_3"><path d="M248.07,243.54a15.06,15.06,0,0,0-10.66.16,4.27,4.27,0,0,0-2.47,5c.74,3,2.94,6.62,6.95,7.37,5.05,0,8-4.14,8.69-8.05A4,4,0,0,0,248.07,243.54Z" fill="#f9b233" stroke="#000" stroke-miterlimit="10" stroke-width="2.11"/></g><g id="change7_1"><ellipse cx="286.34" cy="264.34" fill="#ff9791" rx="8.43" ry="6" transform="rotate(-24.78 286.306 264.335)"/></g><g id="change7_2"><ellipse cx="198.09" cy="263.52" fill="#ff9791" rx="6" ry="8.43" transform="rotate(-53.77 198.11 263.524)"/></g><g id="change8_1"><path d="M235.85,290.58a5.06,5.06,0,0,1-4.06.21c-1.43-.74-1.95-2.53-2.07-4.15a15.91,15.91,0,0,1,.46-5.05,5,5,0,0,1,2.39-3.51,4,4,0,0,1,3,0,11.85,11.85,0,0,1,2.63,1.56,16.29,16.29,0,0,1,3,2.53C244.88,286.6,239.65,289.12,235.85,290.58Z" fill="#9fcfe3" stroke="#000" stroke-miterlimit="10" stroke-width="2.11"/></g><g id="change8_2"><path d="M249.61,290.58a5.06,5.06,0,0,0,4.06.21c1.43-.74,2-2.53,2.07-4.15a15.91,15.91,0,0,0-.46-5.05,5,5,0,0,0-2.39-3.51,4,4,0,0,0-3,0,11.85,11.85,0,0,0-2.63,1.56,16.29,16.29,0,0,0-3,2.53C240.58,286.6,245.81,289.12,249.61,290.58Z" fill="#9fcfe3" stroke="#000" stroke-miterlimit="10" stroke-width="2.11"/></g><g id="change8_3"><circle cx="243.03" cy="284.47" fill="#9fcfe3" r="2.92" stroke="#000" stroke-miterlimit="10" stroke-width="2.11"/></g><g id="change5_4"><circle cx="211.45" cy="250.41" r="10.2"/></g><g id="change5_5"><circle cx="274.78" cy="250.41" r="10.2"/></g><text font-family="GochiHand-Regular,Gochi Hand" font-size="43.22" transform="matrix(.86 .5 -.5 .86 307.96 131.62)">Hi!</text></svg>