<?xml version="1.0" encoding="UTF-8"?><svg xmlns="http://www.w3.org/2000/svg" xmlns:xlink="http://www.w3.org/1999/xlink" data-name="Camada 1" height="293.2" preserveAspectRatio="xMidYMid meet" version="1.0" viewBox="92.6 108.4 297.9 293.2" width="297.9" zoomAndPan="magnify"><g id="change1_1"><path d="M183.52,386.46a4.39,4.39,0,0,0-1.76,1.57,1.76,1.76,0,0,0,.29,2.18c.94.76,2.59,0,3.43.9s.23,2.22.93,3c1.25,1.45,4.17-1,5.4.51a9.21,9.21,0,0,1,.67,1.46c.69,1.18,2.42,1.11,3.73.68,2.71-.88,5.36-3,5.53-5.84a6.23,6.23,0,0,0-3.16-5.42C194.1,382.78,187.83,384,183.52,386.46Z" fill="#f9b233" stroke="#000" stroke-miterlimit="10" stroke-width="2.11"/></g><g id="change1_2"><path d="M325,389.52a4.32,4.32,0,0,1,1.76,1.57,1.79,1.79,0,0,1-.29,2.18c-.95.75-2.59,0-3.43.9s-.23,2.21-.94,3c-1.25,1.45-4.16-1-5.4.51a9.8,9.8,0,0,0-.66,1.47c-.7,1.18-2.43,1.1-3.73.68-2.71-.88-5.36-3-5.53-5.84A6.21,6.21,0,0,1,310,388.6C314.44,385.83,320.71,387,325,389.52Z" fill="#f9b233" stroke="#000" stroke-miterlimit="10" stroke-width="2.11"/></g><g id="change2_1"><path d="M292,139.48a27.25,27.25,0,0,1-.37,4.07H242.88a24.56,24.56,0,0,1,19.72-28.34,22.65,22.65,0,0,1,4.63-.45,23.17,23.17,0,0,1,5.45.62A24.72,24.72,0,0,1,292,139.48Z" fill="#fffbbd" stroke="#000" stroke-linecap="round" stroke-linejoin="round" stroke-width="5.62"/></g><g id="change3_1"><path d="M276.87,142.06h-19a50.27,50.27,0,0,1,.53-14.07,36.39,36.39,0,0,1,4.19-11.36,25,25,0,0,1,4.63-.41,25.5,25.5,0,0,1,5.45.56c.37,1,.7,1.91,1,2.89A74.49,74.49,0,0,1,276.87,142.06Z" fill="#f9c975" stroke="#000" stroke-linecap="round" stroke-linejoin="round" stroke-width="2.66"/></g><g id="change4_1"><circle cx="267.06" cy="110.91" r="2.47"/></g><g id="change4_2"><ellipse cx="259.14" cy="110.84" rx="8.85" ry="1.08"/></g><g id="change4_3"><ellipse cx="275.32" cy="110.49" rx="8.85" ry="1.08"/></g><g id="change5_1"><path d="M165.19,268.39s-39.65-2.46-45.15,7.84,40.9,28.66,40.9,28.66" fill="#575756" stroke="#000" stroke-linecap="round" stroke-linejoin="round" stroke-width="5.62"/></g><g id="change5_2"><path d="M387.74,296.31c0,99.26-93.7,104-173.14,96.77-64.88-5.91-80-70.36-59-121.22a63.64,63.64,0,0,0,4.89-25.51c-1.68-82.68,74.32-110.45,114.08-108.48C383.79,143.27,387.74,249.45,387.74,296.31Z" fill="#575756" stroke="#000" stroke-linecap="round" stroke-linejoin="round" stroke-width="5.62"/></g><g id="change6_1"><path d="M255.46,374.2c-10.31,0-34-.76-46.48-4.27-18.27-5.14-28.76-9.36-36.21-22.89-9.6-17.43-10.12-42.76-1.36-66.1a73.17,73.17,0,0,0,4.73-27.2c-.42-22.65,5.91-41.48,18.83-56,16.22-18.2,40.55-26.35,57.46-26.35.9,0,1.78,0,2.63.07,71.07,3.86,79.29,73.83,79.29,126.13C334.35,349,318.27,374.2,255.46,374.2Z" fill="#fff" stroke="#000" stroke-linecap="round" stroke-linejoin="round" stroke-width="2.81"/></g><g id="change5_3"><path d="M342.13,272.81s-.56,39.72,10,44.72,26.66-42.22,26.66-42.22" fill="#575756" stroke="#000" stroke-linecap="round" stroke-linejoin="round" stroke-width="5.62"/></g><g id="change4_4"><circle cx="212.48" cy="252.66" r="10.2"/></g><g id="change4_5"><circle cx="275.82" cy="252.66" r="10.2"/></g><g id="change1_3"><path d="M247.75,248.16a15.11,15.11,0,0,0-10.66.15,4.29,4.29,0,0,0-2.48,5c.75,3,2.94,6.62,7,7.37,5.05,0,8-4.14,8.69-8.06A4,4,0,0,0,247.75,248.16Z" fill="#f9b233" stroke="#000" stroke-miterlimit="10" stroke-width="2.11"/></g><g id="change7_1"><ellipse cx="286.01" cy="268.96" fill="#ff9791" rx="8.43" ry="6" transform="rotate(-24.78 285.986 268.94)"/></g><g id="change7_2"><ellipse cx="200.72" cy="268.13" fill="#ff9791" rx="6" ry="8.43" transform="rotate(-53.77 200.74 268.142)"/></g><g id="change8_1"><path d="M235.53,295.19a5.07,5.07,0,0,1-4.06.22c-1.44-.74-1.95-2.54-2.07-4.15a15.68,15.68,0,0,1,.46-5.06,5,5,0,0,1,2.39-3.51,4,4,0,0,1,3,0,11.82,11.82,0,0,1,2.62,1.57,16,16,0,0,1,3,2.52C244.55,291.21,239.33,293.74,235.53,295.19Z" fill="#9fcfe3" stroke="#000" stroke-miterlimit="10" stroke-width="2.11"/></g><g id="change8_2"><path d="M249.29,295.19a5.06,5.06,0,0,0,4.06.22c1.43-.74,2-2.54,2.06-4.15a15.41,15.41,0,0,0-.46-5.06,5,5,0,0,0-2.39-3.51,3.94,3.94,0,0,0-3,0A11.89,11.89,0,0,0,247,284.3a16.24,16.24,0,0,0-3,2.52C240.26,291.21,245.49,293.74,249.29,295.19Z" fill="#9fcfe3" stroke="#000" stroke-miterlimit="10" stroke-width="2.11"/></g><g id="change8_3"><circle cx="242.71" cy="289.09" fill="#9fcfe3" r="2.92" stroke="#000" stroke-miterlimit="10" stroke-width="2.11"/></g><g id="change9_1"><rect fill="#fffab3" height="67.9" rx="17.77" stroke="#000" stroke-linecap="round" stroke-linejoin="round" stroke-width="4.5" width="44.52" x="94.88" y="242.47"/></g><g id="change10_1"><path d="M102.94 255.52H131.35V297.3H102.94z" fill="#3c3c3b" stroke="#000" stroke-linecap="round" stroke-linejoin="round" stroke-width="1.48"/></g></svg>