<?xml version="1.0" encoding="UTF-8"?><svg xmlns="http://www.w3.org/2000/svg" xmlns:xlink="http://www.w3.org/1999/xlink" data-name="Camada 1" height="301.4" preserveAspectRatio="xMidYMid meet" version="1.0" viewBox="61.5 106.9 339.5 301.4" width="339.5" zoomAndPan="magnify"><g><path d="M291.05,397.14a4.32,4.32,0,0,1,1.6,1.74,1.78,1.78,0,0,1-.5,2.14c-1,.66-2.58-.23-3.5.56s-.44,2.19-1.22,2.93c-1.39,1.33-4.05-1.35-5.42,0-.39.37-.49.95-.81,1.39-.8,1.11-2.52.87-3.77.32-2.62-1.13-5.05-3.49-4.95-6.34a6.2,6.2,0,0,1,3.66-5.09C280.86,392.46,287,394.25,291.05,397.14Z" fill="#f9b233" stroke="#000" stroke-miterlimit="10" stroke-width="2.11"/></g><g><path d="M355.15,317.34s38.77-8.69,41.18-20.12-47.27-16.13-47.27-16.13" fill="#575756" stroke="#000" stroke-linecap="round" stroke-linejoin="round" stroke-width="5.62"/></g><g><path d="M144.92,258.81s-28.69-27.47-24.85-38.5,48.8,10.62,48.8,10.62" fill="#575756" stroke="#000" stroke-linecap="round" stroke-linejoin="round" stroke-width="5.62"/></g><g><path d="M284,136.25a27.87,27.87,0,0,1,0,4.09l-48.58,3.85a24.41,24.41,0,0,1-.69-4,24.73,24.73,0,0,1,18.11-25.78,22.73,22.73,0,0,1,4.58-.81,23.2,23.2,0,0,1,5.48.18A24.73,24.73,0,0,1,284,136.25Z" fill="#fffbbd" stroke="#000" stroke-linecap="round" stroke-linejoin="round" stroke-width="5.62"/></g><g><path d="M269.11,140l-18.93,1.5a50.22,50.22,0,0,1-.58-14.06,36.68,36.68,0,0,1,3.28-11.66,25,25,0,0,1,4.59-.77,25.5,25.5,0,0,1,5.47.12c.44.93.85,1.86,1.21,2.81A73.93,73.93,0,0,1,269.11,140Z" fill="#f9c975" stroke="#000" stroke-linecap="round" stroke-linejoin="round" stroke-width="2.66"/></g><g><circle cx="256.87" cy="109.74" r="2.47"/></g><g><ellipse cx="248.98" cy="110.29" rx="8.85" ry="1.08" transform="rotate(-4.53 248.991 110.252)"/></g><g><ellipse cx="265.08" cy="108.67" rx="8.85" ry="1.08" transform="rotate(-4.53 265.13 108.738)"/></g><g><path d="M360.77,293.78a63.45,63.45,0,0,1,2.13-25.89c9.6-32,4.61-58.71-7.31-79.82a108.54,108.54,0,0,0-33.49-36.53c-22.47-15-50-17.63-59.16-17a120.92,120.92,0,0,0-34.09,7.13c-27.28,10.1-52.35,31.7-62.57,71.52a63.43,63.43,0,0,1-11.55,23.26c-33.85,43.37-36.59,109.51,24.33,132.6,14.74,5.59,30.15,10.86,45.58,15,15.36,4.42,31.27,7.87,46.78,10.7C335.5,406.44,367.34,348.4,360.77,293.78Z" fill="#575756" stroke="#000" stroke-linecap="round" stroke-linejoin="round" stroke-width="5.62"/></g><g><path d="M335.57,296.19a73.37,73.37,0,0,1,2.74-27.47c6.48-21.71,5.43-41.55-3.13-59-10.74-21.89-32-36.26-48.29-40.8-.76-.21-1.49-.39-2.22-.55s-1.43-.46-2.19-.67c-16.29-4.54-41.91-3.22-62.42,10-16.33,10.49-27.48,26.94-33.15,48.87a73.33,73.33,0,0,1-11.85,24.94c-14.7,20.13-21,44.67-16.42,64,3.55,15,12.52,21.91,28.75,31.76,8.56,5.2,23.91,10.58,35.06,14,1.27.41,2.58.8,3.91,1.19l2.14.63,1.09.32.71.2.72.2,1.1.29,2.16.57c1.33.35,2.66.68,3.95,1,11.34,2.79,27.26,6.12,37.28,6.09,19,0,30.22-1.3,41-12.34C330.45,345.29,337.75,321,335.57,296.19Z" fill="#fff" stroke="#000" stroke-linecap="round" stroke-linejoin="round" stroke-width="2.81"/></g><g><path d="M269.5,242.51a15.11,15.11,0,0,0-10.32-2.71,4.27,4.27,0,0,0-3.72,4.15c-.1,3.13,1.06,7.16,4.72,9,4.86,1.36,8.78-1.85,10.54-5.43A4,4,0,0,0,269.5,242.51Z" fill="#f9b233" stroke="#000" stroke-miterlimit="10" stroke-width="2.11"/></g><g><ellipse cx="300.78" cy="272.81" fill="#ff9791" rx="8.43" ry="6" transform="rotate(-9.22 300.856 272.846)"/></g><g><ellipse cx="215.98" cy="248.35" fill="#ff9791" rx="6" ry="8.43" transform="rotate(-38.22 215.954 248.337)"/></g><g><path d="M245.11,284.54a5.07,5.07,0,0,1-4-.88c-1.18-1.1-1.2-3-.88-4.55a15.54,15.54,0,0,1,1.8-4.75,5,5,0,0,1,3.24-2.74,4,4,0,0,1,2.87.84,12,12,0,0,1,2.11,2.22,16.29,16.29,0,0,1,2.18,3.22C254.87,283.13,249.15,284.16,245.11,284.54Z" fill="#9fcfe3" stroke="#000" stroke-miterlimit="10" stroke-width="2.11"/></g><g><path d="M258.36,288.23c1.13.83,2.49,1.59,3.85,1.3,1.59-.33,2.56-1.92,3.11-3.44a15.78,15.78,0,0,0,.91-5,5,5,0,0,0-1.36-4,3.89,3.89,0,0,0-2.89-.76,11.73,11.73,0,0,0-3,.8,16.2,16.2,0,0,0-3.53,1.64C250.73,282,255.09,285.81,258.36,288.23Z" fill="#9fcfe3" stroke="#000" stroke-miterlimit="10" stroke-width="2.11"/></g><g><circle cx="253.66" cy="280.59" fill="#9fcfe3" r="2.92" stroke="#000" stroke-miterlimit="10" stroke-width="2.11"/></g><g><path d="M122.52,327.91a4.3,4.3,0,0,1-.6-2.28,1.78,1.78,0,0,1,1.45-1.66c1.21-.1,2.17,1.42,3.35,1.16s1.42-1.72,2.46-2c1.85-.52,2.94,3.1,4.78,2.56.52-.15.89-.61,1.37-.85,1.23-.6,2.63.42,3.48,1.49,1.77,2.24,2.81,5.46,1.38,7.93a6.22,6.22,0,0,1-5.63,2.77C129.3,336.84,124.74,332.38,122.52,327.91Z" fill="#f9b233" stroke="#000" stroke-miterlimit="10" stroke-width="2.11"/></g><g><circle cx="297.6" cy="253.23" r="10.2"/></g><path d="M230.12 223.94L240.08 238 219.87 232.72" fill="none" stroke="#000" stroke-linecap="round" stroke-linejoin="round" stroke-width="4.44"/><g><circle cx="112.88" cy="196.62" fill="#706f6f" r="6.33" stroke="#000" stroke-linecap="round" stroke-linejoin="round" stroke-width="1.48"/></g><g><path d="M98.01 201.56H190.57V254.69H98.01z" fill="#f9b233" stroke="#000" stroke-linecap="round" stroke-linejoin="round" stroke-width="2.96"/></g><g><path d="M95.57 196.62H193.01V201.33H95.57z" fill="#f9b233" stroke="#000" stroke-linecap="round" stroke-linejoin="round" stroke-width="2.96"/></g><g><path d="M95.57 252.89H193.01V257.59999999999997H95.57z" fill="#575756" stroke="#000" stroke-linecap="round" stroke-linejoin="round" stroke-width="2.96"/></g><g><circle cx="144.29" cy="228.26" fill="#706f6f" r="21.03" stroke="#000" stroke-linecap="round" stroke-linejoin="round" stroke-width="1.48"/></g><g><circle cx="144.29" cy="228.26" fill="#3c3c3b" r="12.46" stroke="#000" stroke-linecap="round" stroke-linejoin="round" stroke-width="1.48"/></g><g><rect fill="#706f6f" height="8.4" rx="4.2" stroke="#000" stroke-linecap="round" stroke-linejoin="round" stroke-width="1.48" width="11.52" x="171.04" y="209.39"/></g><g><path d="M103.89,163.1c-.06.27,0,.27,0,0-.52,4.55-5.71,9.32-10.15,10.45,4.77,1.94,9.06,6.45,10,11.25.09-.31-.1-.31,0,0,.93-4.8,5.53-9.31,10.3-11.25C109.6,172.42,104.41,167.65,103.89,163.1Z" fill="#fff78f" stroke="#000" stroke-linecap="round" stroke-linejoin="round" stroke-width="1.48"/></g><g><path d="M72.45,211.52c0,.27.06.27,0,0-.52,4.55-5.7,9.33-10.14,10.45,4.76,1.95,9,6.46,10,11.25.09-.3-.1-.3,0,0,.93-4.79,5.53-9.3,10.3-11.25C78.16,220.85,73,216.07,72.45,211.52Z" fill="#fff78f" stroke="#000" stroke-linecap="round" stroke-linejoin="round" stroke-width="1.48"/></g><g><path d="M111.5,268.6c0,.28.06.28,0,0-.51,4.55-5.7,9.33-10.14,10.45,4.77,1.95,9,6.46,10,11.26.09-.31-.09-.31,0,0,.94-4.8,5.53-9.31,10.3-11.26C117.21,277.93,112,273.15,111.5,268.6Z" fill="#fff78f" stroke="#000" stroke-linecap="round" stroke-linejoin="round" stroke-width="1.48"/></g></svg>